<svg width="20" height="21" viewBox="0 0 20 21" fill="none" xmlns="http://www.w3.org/2000/svg">
<mask id="mask0_1997_8026" style="mask-type:alpha" maskUnits="userSpaceOnUse" x="0" y="0" width="20" height="21">
<rect width="20" height="20.0496" transform="matrix(-1 0 0 1 20 0)" fill="#D9D9D9"/>
</mask>
<g mask="url(#mask0_1997_8026)">
<path d="M12.0417 10.0244L6.75 15.3292C6.54167 15.538 6.44097 15.7817 6.44792 16.0602C6.45486 16.3386 6.5625 16.5823 6.77083 16.7911C6.97917 17 7.22222 17.1044 7.5 17.1044C7.77778 17.1044 8.02083 17 8.22917 16.7911L13.8125 11.2148C13.9792 11.0478 14.1042 10.8598 14.1875 10.6509C14.2708 10.4421 14.3125 10.2332 14.3125 10.0244C14.3125 9.81554 14.2708 9.60669 14.1875 9.39784C14.1042 9.18899 13.9792 9.00102 13.8125 8.83394L8.22917 3.23676C8.02083 3.02791 7.77431 2.92697 7.48958 2.93393C7.20486 2.94089 6.95833 3.0488 6.75 3.25765C6.54167 3.4665 6.4375 3.71016 6.4375 3.98862C6.4375 4.26709 6.54167 4.51075 6.75 4.7196L12.0417 10.0244Z" fill="black"/>
</g>
</svg>
