<svg width="59" height="54" viewBox="0 0 59 54" fill="none" xmlns="http://www.w3.org/2000/svg">
<g filter="url(#filter0_di_3693_9610)">
<path d="M54.1508 28.4467C54.1508 25.1822 53.5151 21.9497 52.2801 18.9337C51.045 15.9176 49.2348 13.1772 46.9528 10.8689C44.6708 8.56052 41.9616 6.72943 38.98 5.48016C35.9983 4.23088 32.8027 3.58789 29.5754 3.58789C26.3481 3.58789 23.1524 4.23088 20.1708 5.48015C17.1892 6.72942 14.48 8.56051 12.198 10.8689C9.91593 13.1772 8.10572 15.9176 6.87069 18.9336C5.63566 21.9496 5 25.1822 5 28.4467" stroke="#EFF1F5" stroke-width="5.58801" stroke-linecap="round" stroke-linejoin="round"/>
</g>
<path d="M5 28.4467C5 24.4321 5.96123 20.4772 7.80149 16.9202C9.64175 13.3633 12.3063 10.3101 15.5672 8.02172C18.8282 5.73336 22.5885 4.27794 26.5267 3.77991C30.4649 3.28189 34.4637 3.75607 38.1813 5.16192" stroke="url(#paint0_linear_3693_9610)" stroke-width="5.58801" stroke-linecap="round" stroke-linejoin="round"/>
<path d="M29.9929 18.3854C30.9786 18.3854 31.7672 18.6466 32.3587 19.1691C32.9501 19.6915 33.2705 20.416 33.3198 21.3426H31.161C31.1117 20.9483 30.9737 20.6477 30.747 20.4407C30.5301 20.2337 30.2393 20.1302 29.8746 20.1302C29.3029 20.1302 28.8346 20.3766 28.4699 20.8695C28.115 21.3525 27.9228 22.1017 27.8932 23.117H27.9228C28.5044 22.427 29.2634 22.0819 30.1999 22.0819C30.8406 22.0819 31.4074 22.2199 31.9003 22.496C32.3932 22.772 32.7727 23.1564 33.0389 23.6493C33.3149 24.1422 33.4529 24.704 33.4529 25.3349C33.4529 26.0249 33.2952 26.6361 32.9797 27.1684C32.6643 27.6909 32.2207 28.0999 31.6489 28.3957C31.0871 28.6815 30.4414 28.8245 29.712 28.8245C28.4798 28.8245 27.5334 28.4105 26.873 27.5824C26.2125 26.7544 25.8823 25.5271 25.8823 23.9007C25.8823 22.1362 26.2372 20.7758 26.9469 19.8196C27.6665 18.8635 28.6818 18.3854 29.9929 18.3854ZM29.7415 23.6936C29.2881 23.6936 28.9234 23.8563 28.6473 24.1816C28.3713 24.497 28.2333 24.9209 28.2333 25.4532C28.2333 25.9461 28.3664 26.3404 28.6326 26.6361C28.8987 26.9318 29.2585 27.0797 29.712 27.0797C30.1753 27.0797 30.5449 26.9318 30.8209 26.6361C31.0969 26.3305 31.2349 25.9214 31.2349 25.4088C31.2349 24.8864 31.0969 24.4724 30.8209 24.1668C30.5548 23.8514 30.195 23.6936 29.7415 23.6936Z" fill="#181D27"/>
<defs>
<filter id="filter0_di_3693_9610" x="0.808992" y="0.793945" width="57.5328" height="33.2408" filterUnits="userSpaceOnUse" color-interpolation-filters="sRGB">
<feFlood flood-opacity="0" result="BackgroundImageFix"/>
<feColorMatrix in="SourceAlpha" type="matrix" values="0 0 0 0 0 0 0 0 0 0 0 0 0 0 0 0 0 0 127 0" result="hardAlpha"/>
<feOffset dy="1.397"/>
<feGaussianBlur stdDeviation="0.698501"/>
<feComposite in2="hardAlpha" operator="out"/>
<feColorMatrix type="matrix" values="0 0 0 0 0.847282 0 0 0 0 0.847282 0 0 0 0 0.847282 0 0 0 0.25 0"/>
<feBlend mode="normal" in2="BackgroundImageFix" result="effect1_dropShadow_3693_9610"/>
<feBlend mode="normal" in="SourceGraphic" in2="effect1_dropShadow_3693_9610" result="shape"/>
<feColorMatrix in="SourceAlpha" type="matrix" values="0 0 0 0 0 0 0 0 0 0 0 0 0 0 0 0 0 0 127 0" result="hardAlpha"/>
<feOffset dy="1.397"/>
<feGaussianBlur stdDeviation="0.698501"/>
<feComposite in2="hardAlpha" operator="arithmetic" k2="-1" k3="1"/>
<feColorMatrix type="matrix" values="0 0 0 0 0.847059 0 0 0 0 0.847059 0 0 0 0 0.847059 0 0 0 0.25 0"/>
<feBlend mode="normal" in2="shape" result="effect2_innerShadow_3693_9610"/>
</filter>
<linearGradient id="paint0_linear_3693_9610" x1="42.7223" y1="3.58789" x2="4.74341" y2="28.0483" gradientUnits="userSpaceOnUse">
<stop stop-color="#FF5C25"/>
<stop offset="1" stop-color="#F28037"/>
</linearGradient>
</defs>
</svg>
