<svg width="59" height="54" viewBox="0 0 59 54" fill="none" xmlns="http://www.w3.org/2000/svg">
<g filter="url(#filter0_di_3693_9586)">
<path d="M54.1508 28.5764C54.1508 25.3118 53.5151 22.0793 52.2801 19.0633C51.045 16.0473 49.2348 13.3069 46.9528 10.9985C44.6708 8.69015 41.9616 6.85907 38.98 5.60979C35.9983 4.36052 32.8027 3.71753 29.5754 3.71753C26.3481 3.71753 23.1524 4.36052 20.1708 5.60979C17.1892 6.85906 14.48 8.69014 12.198 10.9985C9.91593 13.3069 8.10572 16.0473 6.87069 19.0633C5.63566 22.0793 5 25.3118 5 28.5763" stroke="#EFF1F5" stroke-width="5.58801" stroke-linecap="round" stroke-linejoin="round"/>
</g>
<path d="M5 28.5763C5 23.3896 6.60387 18.3328 9.58695 14.1142C12.57 9.89555 16.7829 6.72642 21.6355 5.05069C26.4881 3.37495 31.7373 3.27654 36.648 4.76924C41.5586 6.26194 45.8847 9.27098 49.0203 13.3749" stroke="url(#paint0_linear_3693_9586)" stroke-width="5.58801" stroke-linecap="round" stroke-linejoin="round"/>
<path d="M29.638 18.515C30.3379 18.515 30.9589 18.6284 31.5011 18.8551C32.0432 19.0818 32.4671 19.4022 32.7727 19.8162C33.0783 20.2302 33.2311 20.7132 33.2311 21.2653C33.2311 21.8074 33.0684 22.2806 32.7431 22.6847C32.4277 23.079 31.989 23.36 31.4272 23.5276V23.5571C32.0482 23.7247 32.5361 24.0254 32.891 24.4591C33.2557 24.8928 33.4381 25.4202 33.4381 26.0412C33.4381 26.9481 33.0931 27.6628 32.403 28.1852C31.713 28.6978 30.7913 28.9541 29.638 28.9541C28.4847 28.9541 27.563 28.6978 26.873 28.1852C26.183 27.6628 25.838 26.9481 25.838 26.0412C25.838 25.4202 26.0154 24.8928 26.3703 24.4591C26.735 24.0254 27.2279 23.7247 27.8489 23.5571V23.5276C27.287 23.36 26.8434 23.079 26.5181 22.6847C26.2027 22.2806 26.045 21.8074 26.045 21.2653C26.045 20.7132 26.1978 20.2302 26.5033 19.8162C26.8089 19.4022 27.2328 19.0818 27.775 18.8551C28.3171 18.6284 28.9381 18.515 29.638 18.515ZM29.638 20.245C29.1747 20.245 28.8001 20.3534 28.5143 20.5703C28.2383 20.7872 28.1003 21.078 28.1003 21.4427C28.1003 21.8469 28.2383 22.1672 28.5143 22.4038C28.7903 22.6305 29.1649 22.7439 29.638 22.7439C30.1112 22.7439 30.4858 22.6305 30.7618 22.4038C31.0378 22.1672 31.1758 21.8469 31.1758 21.4427C31.1758 21.078 31.0329 20.7872 30.747 20.5703C30.471 20.3534 30.1013 20.245 29.638 20.245ZM29.638 24.4443C29.1353 24.4443 28.7311 24.5725 28.4255 24.8287C28.1298 25.0752 27.982 25.4054 27.982 25.8194C27.982 26.2433 28.1298 26.5785 28.4255 26.8249C28.7213 27.0713 29.1254 27.1945 29.638 27.1945C30.1506 27.1945 30.5548 27.0713 30.8505 26.8249C31.1462 26.5785 31.2941 26.2433 31.2941 25.8194C31.2941 25.4054 31.1413 25.0752 30.8357 24.8287C30.54 24.5725 30.1408 24.4443 29.638 24.4443Z" fill="#181D27"/>
<defs>
<filter id="filter0_di_3693_9586" x="0.808992" y="0.923584" width="57.5328" height="33.2408" filterUnits="userSpaceOnUse" color-interpolation-filters="sRGB">
<feFlood flood-opacity="0" result="BackgroundImageFix"/>
<feColorMatrix in="SourceAlpha" type="matrix" values="0 0 0 0 0 0 0 0 0 0 0 0 0 0 0 0 0 0 127 0" result="hardAlpha"/>
<feOffset dy="1.397"/>
<feGaussianBlur stdDeviation="0.698501"/>
<feComposite in2="hardAlpha" operator="out"/>
<feColorMatrix type="matrix" values="0 0 0 0 0.847282 0 0 0 0 0.847282 0 0 0 0 0.847282 0 0 0 0.25 0"/>
<feBlend mode="normal" in2="BackgroundImageFix" result="effect1_dropShadow_3693_9586"/>
<feBlend mode="normal" in="SourceGraphic" in2="effect1_dropShadow_3693_9586" result="shape"/>
<feColorMatrix in="SourceAlpha" type="matrix" values="0 0 0 0 0 0 0 0 0 0 0 0 0 0 0 0 0 0 127 0" result="hardAlpha"/>
<feOffset dy="1.397"/>
<feGaussianBlur stdDeviation="0.698501"/>
<feComposite in2="hardAlpha" operator="arithmetic" k2="-1" k3="1"/>
<feColorMatrix type="matrix" values="0 0 0 0 0.847059 0 0 0 0 0.847059 0 0 0 0 0.847059 0 0 0 0.25 0"/>
<feBlend mode="normal" in2="shape" result="effect2_innerShadow_3693_9586"/>
</filter>
<linearGradient id="paint0_linear_3693_9586" x1="42.7223" y1="3.71753" x2="4.74341" y2="28.178" gradientUnits="userSpaceOnUse">
<stop stop-color="#FF5C25"/>
<stop offset="1" stop-color="#F28037"/>
</linearGradient>
</defs>
</svg>
