<svg width="59" height="54" viewBox="0 0 59 54" fill="none" xmlns="http://www.w3.org/2000/svg">
<g filter="url(#filter0_di_3693_9593)">
<path d="M54.1508 28.2939C54.1508 25.0294 53.5151 21.7968 52.2801 18.7808C51.045 15.7648 49.2348 13.0244 46.9528 10.716C44.6708 8.40768 41.9616 6.5766 38.98 5.32732C35.9983 4.07805 32.8027 3.43506 29.5754 3.43506C26.3481 3.43506 23.1524 4.07805 20.1708 5.32732C17.1892 6.57659 14.48 8.40767 12.198 10.716C9.91593 13.0244 8.10572 15.7648 6.87069 18.7808C5.63566 21.7968 5 25.0294 5 28.2939" stroke="#EFF1F5" stroke-width="5.58801" stroke-linecap="round" stroke-linejoin="round"/>
</g>
<path d="M5 28.2939C5 22.564 6.95683 17.0101 10.5394 12.5718C14.122 8.13343 19.1103 5.08325 24.6604 3.93729C30.2105 2.79134 35.9815 3.61997 40.9971 6.28299C46.0126 8.94601 49.9648 13.2799 52.1848 18.5514" stroke="url(#paint0_linear_3693_9593)" stroke-width="5.58801" stroke-linecap="round" stroke-linejoin="round"/>
<path d="M28.9874 28.6716C28.0017 28.6716 27.2131 28.4104 26.6216 27.888C26.0302 27.3655 25.7098 26.641 25.6605 25.7144H27.8193C27.8686 26.1087 28.0017 26.4093 28.2185 26.6164C28.4453 26.8234 28.741 26.9269 29.1057 26.9269C29.6775 26.9269 30.1408 26.6854 30.4956 26.2023C30.8603 25.7095 31.0575 24.9554 31.0871 23.94H31.0575C30.4759 24.6301 29.7169 24.9751 28.7804 24.9751C28.1397 24.9751 27.5729 24.8371 27.08 24.5611C26.5871 24.2851 26.2027 23.9006 25.9267 23.4077C25.6605 22.9149 25.5274 22.353 25.5274 21.7221C25.5274 21.0321 25.6852 20.4258 26.0006 19.9034C26.316 19.3711 26.7547 18.962 27.3166 18.6761C27.8883 18.3804 28.5389 18.2326 29.2684 18.2326C30.5006 18.2326 31.4469 18.6466 32.1073 19.4746C32.7678 20.3026 33.098 21.5299 33.098 23.1564C33.098 24.9209 32.7382 26.2812 32.0186 27.2374C31.3089 28.1936 30.2985 28.6716 28.9874 28.6716ZM29.2388 23.3634C29.6922 23.3634 30.057 23.2057 30.333 22.8902C30.609 22.5649 30.747 22.1361 30.747 21.6038C30.747 21.1109 30.6139 20.7166 30.3478 20.4209C30.0816 20.1252 29.7218 19.9773 29.2684 19.9773C28.8051 19.9773 28.4354 20.1301 28.1594 20.4357C27.8834 20.7314 27.7454 21.1356 27.7454 21.6482C27.7454 22.1706 27.8785 22.5896 28.1446 22.905C28.4206 23.2106 28.7853 23.3634 29.2388 23.3634Z" fill="#181D27"/>
<defs>
<filter id="filter0_di_3693_9593" x="0.808992" y="0.641113" width="57.5328" height="33.2408" filterUnits="userSpaceOnUse" color-interpolation-filters="sRGB">
<feFlood flood-opacity="0" result="BackgroundImageFix"/>
<feColorMatrix in="SourceAlpha" type="matrix" values="0 0 0 0 0 0 0 0 0 0 0 0 0 0 0 0 0 0 127 0" result="hardAlpha"/>
<feOffset dy="1.397"/>
<feGaussianBlur stdDeviation="0.698501"/>
<feComposite in2="hardAlpha" operator="out"/>
<feColorMatrix type="matrix" values="0 0 0 0 0.847282 0 0 0 0 0.847282 0 0 0 0 0.847282 0 0 0 0.25 0"/>
<feBlend mode="normal" in2="BackgroundImageFix" result="effect1_dropShadow_3693_9593"/>
<feBlend mode="normal" in="SourceGraphic" in2="effect1_dropShadow_3693_9593" result="shape"/>
<feColorMatrix in="SourceAlpha" type="matrix" values="0 0 0 0 0 0 0 0 0 0 0 0 0 0 0 0 0 0 127 0" result="hardAlpha"/>
<feOffset dy="1.397"/>
<feGaussianBlur stdDeviation="0.698501"/>
<feComposite in2="hardAlpha" operator="arithmetic" k2="-1" k3="1"/>
<feColorMatrix type="matrix" values="0 0 0 0 0.847059 0 0 0 0 0.847059 0 0 0 0 0.847059 0 0 0 0.25 0"/>
<feBlend mode="normal" in2="shape" result="effect2_innerShadow_3693_9593"/>
</filter>
<linearGradient id="paint0_linear_3693_9593" x1="42.7223" y1="3.43506" x2="4.74341" y2="27.8955" gradientUnits="userSpaceOnUse">
<stop stop-color="#FF5C25"/>
<stop offset="1" stop-color="#F28037"/>
</linearGradient>
</defs>
</svg>
