<svg width="88" height="89" viewBox="0 0 88 89" fill="none" xmlns="http://www.w3.org/2000/svg">
<path d="M-1.13227e-05 46.2468C-1.18601e-05 40.0995 1.34152 34.0263 3.93095 28.451C6.52039 22.8757 10.2953 17.9327 14.9923 13.967C19.6893 10.0012 25.1952 7.10824 31.1256 5.49001C37.0561 3.87178 43.2682 3.56726 49.3285 4.5977L48.5093 9.41602C43.1501 8.50479 37.6566 8.77408 32.4122 10.2051C27.1678 11.6361 22.299 14.1944 18.1454 17.7014C13.9918 21.2083 10.6535 25.5795 8.36366 30.5098C6.0738 35.4401 4.88746 40.8107 4.88746 46.2468L-1.13227e-05 46.2468Z" fill="#F28037"/>
<circle cx="49.7022" cy="7.31348" r="6.62696" fill="#F28037"/>
<path d="M41.7233 28.3068C45.2489 28.3068 47.502 30.2949 47.6876 33.6083H43.8175C43.6319 32.2034 42.8367 31.4347 41.5113 31.4347C39.5762 31.4347 38.0653 32.9721 37.9592 36.7893H38.0122C39.046 35.5699 40.4245 34.9337 42.0944 34.9337C45.5935 34.9337 47.9262 37.3194 47.9262 40.7654C47.9262 44.503 45.1959 47.0213 41.2197 47.0213C36.8459 47.0213 34.3542 44.0789 34.3542 38.1942C34.3542 31.8323 37.058 28.3068 41.7233 28.3068ZM41.2727 37.8231C39.6292 37.8231 38.5689 39.0689 38.5689 40.9775C38.5689 42.7535 39.5762 43.8934 41.2197 43.8934C42.8897 43.8934 43.95 42.727 43.95 40.898C43.95 39.0424 42.9162 37.8231 41.2727 37.8231Z" fill="black"/>
</svg>
