<svg width="88" height="87" viewBox="0 0 88 87" fill="none" xmlns="http://www.w3.org/2000/svg">
<path d="M3.93606e-06 44.2468C3.24626e-06 36.3564 2.2097 28.6237 6.37878 21.9247C10.5479 15.2256 16.5097 9.82802 23.5889 6.34329L25.7474 10.7283C19.4872 13.8099 14.2151 18.583 10.5283 24.5071C6.84154 30.4311 4.88748 37.2692 4.88748 44.2468L3.93606e-06 44.2468Z" fill="#F28037"/>
<circle cx="26.5078" cy="6.97022" r="6.62696" fill="#F28037"/>
<path d="M48.4828 40.5945H45.9646V44.5972H42.1475V40.5945H33.5059V37.4135L40.8221 26.7309H45.9646V37.5991H48.4828V40.5945ZM37.058 37.5991H42.2535V35.4255C42.2535 33.4374 42.3065 31.4758 42.439 29.4877H42.386C41.2727 31.3963 40.0798 33.2518 38.8075 35.1074L37.058 37.5991Z" fill="black"/>
</svg>
