<svg width="88" height="85" viewBox="0 0 88 85" fill="none" xmlns="http://www.w3.org/2000/svg">
<path d="M-1.13227e-05 42.2468C-1.18981e-05 35.6658 1.53744 29.1758 4.48977 23.2942L8.85783 25.4868C6.24705 30.688 4.88746 36.4272 4.88746 42.2468L-1.13227e-05 42.2468Z" fill="#F28037"/>
<circle cx="9.94044" cy="19.8809" r="6.62696" fill="#F28037"/>
<path d="M41.0606 24.3068C44.8778 24.3068 47.343 26.2683 47.343 29.4228C47.343 32.6302 45.4609 34.0882 42.8367 35.6256C39.5497 37.5607 38.9135 38.3294 38.8605 39.4692H47.7936V42.5972H34.3011C34.2746 42.3851 34.2746 42.173 34.2746 42.014C34.2746 38.515 35.2289 36.3943 39.4172 33.9556C42.0149 32.4447 43.3668 31.4639 43.3668 29.5818C43.3668 28.3094 42.5186 27.4612 41.0606 27.4612C39.2316 27.4612 38.3833 28.4685 38.3568 30.324H34.5132C34.6192 26.4009 37.058 24.3068 41.0606 24.3068Z" fill="black"/>
</svg>
