<svg width="88" height="85" viewBox="0 0 88 85" fill="none" xmlns="http://www.w3.org/2000/svg">
<path d="M-1.13227e-05 42.2468C-1.18077e-05 36.6989 1.09274 31.2053 3.21584 26.0796C5.33894 20.954 8.45082 16.2967 12.3738 12.3738C16.2968 8.45077 20.954 5.33889 26.0797 3.21579C31.2053 1.09268 36.6989 -6.47287e-05 42.2468 -6.49712e-05C47.7948 -6.52137e-05 53.2884 1.09268 58.414 3.21579C63.5396 5.33889 68.1969 8.45077 72.1199 12.3738C76.0429 16.2967 79.1548 20.954 81.2779 26.0796C83.401 31.2052 84.4937 36.6989 84.4937 42.2468L79.6062 42.2468C79.6062 37.3407 78.6399 32.4826 76.7624 27.95C74.8849 23.4173 72.1331 19.2989 68.6639 15.8297C65.1948 12.3606 61.0763 9.60871 56.5437 7.73122C52.011 5.85374 47.153 4.88741 42.2468 4.88741C37.3407 4.88741 32.4827 5.85374 27.95 7.73122C23.4174 9.60871 19.2989 12.3606 15.8298 15.8297C12.3606 19.2989 9.60876 23.4173 7.73128 27.95C5.85379 32.4826 4.88746 37.3407 4.88746 42.2468L-1.13227e-05 42.2468Z" fill="#F28037"/>
<circle cx="81.1802" cy="41.4185" r="6.62696" fill="#F28037"/>
<path d="M31.7166 42.5972V30.4831H27.3958V27.7793C28.8979 27.7793 30.0113 27.5407 30.7358 27.0636C31.4604 26.5864 31.9022 25.8089 32.0612 24.7309H35.5337V42.5972H31.7166ZM48.6978 24.3068C50.9774 24.3068 52.7358 25.1197 53.9728 26.7455C55.2099 28.3713 55.8284 30.6775 55.8284 33.664C55.8284 36.6682 55.2099 38.9833 53.9728 40.6091C52.7535 42.2172 50.9951 43.0213 48.6978 43.0213C46.4004 43.0213 44.6332 42.2172 43.3962 40.6091C42.1768 38.9833 41.5672 36.6682 41.5672 33.664C41.5672 30.6775 42.1857 28.3713 43.4227 26.7455C44.6597 25.1197 46.4181 24.3068 48.6978 24.3068ZM48.6978 27.5142C47.6728 27.5142 46.8864 28.0532 46.3386 29.1312C45.8084 30.1915 45.5433 31.7024 45.5433 33.664C45.5433 35.661 45.8084 37.1984 46.3386 38.2764C46.8864 39.3367 47.6728 39.8669 48.6978 39.8669C49.7227 39.8669 50.5003 39.3367 51.0305 38.2764C51.5783 37.1984 51.8522 35.661 51.8522 33.664C51.8522 31.7024 51.5783 30.1915 51.0305 29.1312C50.5003 28.0532 49.7227 27.5142 48.6978 27.5142Z" fill="#F28037"/>
</svg>
