<svg width="88" height="85" viewBox="0 0 88 85" fill="none" xmlns="http://www.w3.org/2000/svg">
<path d="M-1.13227e-05 42.2468C-1.21117e-05 33.2226 2.88961 24.4355 8.2456 17.1727C13.6016 9.90979 21.1425 4.55278 29.7637 1.88631C38.385 -0.780162 47.6335 -0.615974 56.1547 2.35482C64.6759 5.32562 72.0218 10.9469 77.1167 18.3953L73.0826 21.1547C68.5772 14.5679 62.0811 9.59698 54.5457 6.96986C47.0103 4.34275 38.8317 4.19756 31.2079 6.55555C23.584 8.91354 16.9155 13.6508 12.1791 20.0735C7.44279 26.4961 4.88746 34.2666 4.88746 42.2468L-1.13227e-05 42.2468Z" fill="#F28037"/>
<circle cx="74.5533" cy="21.5376" r="6.62696" fill="#F28037"/>
<path d="M41.0871 24.3068C44.8513 24.3068 47.5286 26.2418 47.5286 29.2372C47.5286 31.1988 46.2827 32.7097 44.2946 33.2929V33.3459C46.5213 33.9291 47.8997 35.5726 47.8997 37.7992C47.8997 41.0597 45.1959 43.0213 41.0871 43.0213C36.9784 43.0213 34.2746 41.0597 34.2746 37.7992C34.2746 35.5726 35.653 33.9291 37.8797 33.3459V33.2929C35.8916 32.7097 34.6457 31.1988 34.6457 29.2372C34.6457 26.2418 37.323 24.3068 41.0871 24.3068ZM41.0871 27.4082C39.4172 27.4082 38.3303 28.2299 38.3303 29.5553C38.3303 31.0132 39.3906 31.888 41.0871 31.888C42.7836 31.888 43.844 31.0132 43.844 29.5553C43.844 28.2299 42.7571 27.4082 41.0871 27.4082ZM41.0871 34.9364C39.2846 34.9364 38.1183 35.9172 38.1183 37.4016C38.1183 38.9126 39.2581 39.8669 41.0871 39.8669C42.9162 39.8669 44.056 38.9126 44.056 37.4016C44.056 35.9172 42.8897 34.9364 41.0871 34.9364Z" fill="black"/>
</svg>
