<svg width="88" height="89" viewBox="0 0 88 89" fill="none" xmlns="http://www.w3.org/2000/svg">
<path d="M-3.69334e-06 46.2468C-4.19876e-06 40.4654 1.18662 34.7456 3.48641 29.4413C5.78621 24.137 9.15023 19.3612 13.3702 15.4095C17.5902 11.4578 22.5764 8.41432 28.0201 6.46743C33.4639 4.52054 39.2492 3.71168 45.0182 4.09093L44.6976 8.96788C39.596 8.6325 34.4799 9.34778 29.666 11.0694C24.8521 12.7911 20.4427 15.4825 16.7109 18.977C12.9791 22.4716 10.0043 26.6949 7.97055 31.3855C5.93681 36.0761 4.88747 41.1343 4.88747 46.2468L-3.69334e-06 46.2468Z" fill="#F28037"/>
<circle cx="41.4185" cy="7.31348" r="6.62696" fill="#F28037"/>
<path d="M46.8393 31.8323H38.6484L38.1978 36.047H38.2508C39.1256 35.1458 40.3979 34.6951 41.7498 34.6951C45.3019 34.6951 47.7406 37.1074 47.7406 40.6329C47.7406 44.5296 44.9838 47.0213 40.8486 47.0213C36.9519 47.0213 34.4337 44.9802 34.4337 41.6932H38.2773C38.3303 43.1246 39.5232 43.8934 40.8751 43.8934C42.7041 43.8934 43.7644 42.8331 43.7644 40.792C43.7644 38.7774 42.6246 37.7436 40.9281 37.7436C39.5497 37.7436 38.6219 38.4858 38.3833 39.5991L34.5927 39.3605L35.6 28.7309H46.8393V31.8323Z" fill="black"/>
</svg>
