<svg width="88" height="85" viewBox="0 0 88 85" fill="none" xmlns="http://www.w3.org/2000/svg">
<path d="M-3.69334e-06 42.2468C-4.17835e-06 36.6989 1.09274 31.2053 3.21585 26.0796C5.33895 20.954 8.45083 16.2967 12.3738 12.3738L15.8298 15.8297C12.3606 19.2989 9.60877 23.4173 7.73128 27.95C5.8538 32.4826 4.88747 37.3407 4.88747 42.2468L-3.69334e-06 42.2468Z" fill="#F28037"/>
<circle cx="16.5674" cy="11.5972" r="6.62696" fill="#F28037"/>
<path d="M41.1137 24.3068C45.0368 24.3068 47.449 26.2683 47.449 29.3433C47.449 31.3578 46.4682 32.5772 44.3211 33.3459V33.3989C46.6538 34.1677 47.7141 35.5196 47.7141 37.7992C47.7141 41.0067 45.1163 43.0213 41.1667 43.0213C36.7134 43.0213 34.2481 40.8211 34.2481 36.7654H38.0918C38.0918 38.8065 39.1256 39.8669 41.1667 39.8669C42.7836 39.8669 43.844 38.9656 43.844 37.6137C43.844 36.0232 42.7041 35.2015 40.2654 35.2015H39.7087V32.1266H40.2654C42.3595 32.1266 43.6319 31.1723 43.6319 29.7144C43.6319 28.3625 42.5981 27.4612 41.0076 27.4612C39.2846 27.4612 38.3038 28.389 38.3038 30.4036H34.4602C34.4602 26.5599 36.8989 24.3068 41.1137 24.3068Z" fill="black"/>
</svg>
