<svg width="88" height="85" viewBox="0 0 88 85" fill="none" xmlns="http://www.w3.org/2000/svg">
<path d="M-1.13227e-05 42.2468C-1.22057e-05 32.147 3.61822 22.3815 10.1989 14.7199C16.7797 7.05838 25.8874 2.00788 35.8715 0.483751C45.8556 -1.04038 56.0553 1.06272 64.6222 6.4119C73.1891 11.7611 79.5562 20.0023 82.5695 29.6421L77.9047 31.1003C75.2399 22.5758 69.6094 15.2879 62.0336 10.5576C54.4579 5.82724 45.4381 3.96745 36.609 5.31525C27.78 6.66306 19.7259 11.1293 13.9065 17.9045C8.08711 24.6796 4.88746 33.3155 4.88746 42.2468L-1.13227e-05 42.2468Z" fill="#F28037"/>
<circle cx="81.1802" cy="31.478" r="6.62696" fill="#F28037"/>
<path d="M39.9208 43.0213C36.3953 43.0213 34.1421 41.0332 33.9565 37.7197H37.8267C38.0122 39.1246 38.8075 39.8934 40.1329 39.8934C42.0679 39.8934 43.5789 38.3559 43.6849 34.5388H43.6319C42.5981 35.7581 41.2197 36.3943 39.5497 36.3943C36.0507 36.3943 33.718 34.0086 33.718 30.5626C33.718 26.825 36.4483 24.3068 40.4245 24.3068C44.7982 24.3068 47.29 27.2491 47.29 33.1339C47.29 39.4958 44.5862 43.0213 39.9208 43.0213ZM40.3714 33.505C42.0149 33.505 43.0752 32.2591 43.0752 30.3505C43.0752 28.5745 42.0679 27.4347 40.4245 27.4347C38.7545 27.4347 37.6941 28.601 37.6941 30.4301C37.6941 32.2856 38.7279 33.505 40.3714 33.505Z" fill="black"/>
</svg>
