<svg width="88" height="85" viewBox="0 0 88 85" fill="none" xmlns="http://www.w3.org/2000/svg">
<path d="M-1.13227e-05 42.2468C-1.19729e-05 34.8094 1.9634 27.5038 5.69177 21.0684C9.42015 14.633 14.7813 9.29596 21.2335 5.59663C27.6856 1.8973 35 -0.033161 42.4373 0.000364238C49.8746 0.0338895 57.1713 2.03021 63.5898 5.78756L61.1207 10.0055C55.4447 6.68281 48.9922 4.91744 42.4153 4.88779C35.8383 4.85814 29.3702 6.56527 23.6645 9.83663C17.9588 13.108 13.2178 17.8276 9.92077 23.5185C6.62373 29.2094 4.88746 35.6698 4.88746 42.2468L-1.13227e-05 42.2468Z" fill="#F28037"/>
<circle cx="62.9561" cy="9.94044" r="6.62696" fill="#F28037"/>
<path d="M47.6081 24.7309V28.0179C44.9838 31.7555 42.8367 37.0305 41.8824 42.5972H37.7207C39.046 36.1558 41.6438 30.8277 43.9235 27.9648H34.2746V24.7309H47.6081Z" fill="black"/>
</svg>
