<svg width="26" height="25" viewBox="0 0 26 25" fill="currentColor" xmlns="http://www.w3.org/2000/svg">
<g opacity="0.9">
<path d="M12.5911 22.2492L13 25L13.4089 22.2492C14.5164 14.8019 15.3019 14.0161 22.7492 12.9089L25.5 12.5L22.7494 12.0911C15.3022 10.9839 14.5164 10.1981 13.4092 2.75083L13 0L12.5911 2.75083C11.4836 10.1981 10.6981 10.9839 3.25083 12.0911L0.5 12.5L3.25056 12.9089C10.6981 14.0164 11.4836 14.8019 12.5911 22.2492ZM10.885 10.385C11.9672 9.30305 12.5292 12.5487 13 10.0962C13.4708 12.5487 14.0328 9.30278 15.115 10.385C16.1969 11.4669 13 5.76923 13.4808 5.76923C11.5577 5.76923 12.8948 8.05267 11.8125 9.13461C6.26923 12.4135 13.4708 12.3267 13 14.7792C13.4808 15.7407 16.1972 11.4672 15.115 10.385C14.0331 9.30305 15.7899 12.4901 13.3374 12.0192C15.7899 11.5484 9.80305 11.4669 10.885 10.385Z" fill="black"/>
</g>
</svg>
