<svg width="30" height="29" viewBox="0 0 30 29" fill="none" xmlns="http://www.w3.org/2000/svg">
<g id="favorite_border">
<path id="Vector" d="M20.0627 3.41357C17.9602 3.41357 15.9423 4.39232 14.6252 5.93899C13.3082 4.39232 11.2902 3.41357 9.18773 3.41357C5.46607 3.41357 2.5419 6.33774 2.5419 10.0594C2.5419 14.6269 6.65023 18.3486 12.8732 24.0036L14.6252 25.5865L16.3773 23.9915C22.6002 18.3486 26.7086 14.6269 26.7086 10.0594C26.7086 6.33774 23.7844 3.41357 20.0627 3.41357ZM14.7461 22.2032L14.6252 22.324L14.5044 22.2032C8.75273 16.9952 4.95857 13.5515 4.95857 10.0594C4.95857 7.64274 6.77107 5.83024 9.18773 5.83024C11.0486 5.83024 12.8611 7.02649 13.5015 8.68191H15.7611C16.3894 7.02649 18.2019 5.83024 20.0627 5.83024C22.4794 5.83024 24.2919 7.64274 24.2919 10.0594C24.2919 13.5515 20.4977 16.9952 14.7461 22.2032Z" fill="#1C1B1F"/>
</g>
</svg>
